<svg width="198" height="75" viewBox="0 0 198 75" fill="none" xmlns="http://www.w3.org/2000/svg">
<path d="M37.4545 30C36.9545 28.4697 36.2955 27.0985 35.4773 25.8864C34.6742 24.6591 33.7121 23.6136 32.5909 22.75C31.4849 21.8864 30.2273 21.2273 28.8182 20.7727C27.4091 20.3182 25.8636 20.0909 24.1818 20.0909C21.4242 20.0909 18.9167 20.803 16.6591 22.2273C14.4015 23.6515 12.6061 25.75 11.2727 28.5227C9.93939 31.2955 9.27273 34.697 9.27273 38.7273C9.27273 42.7576 9.94697 46.1591 11.2955 48.9318C12.6439 51.7045 14.4697 53.803 16.7727 55.2273C19.0758 56.6515 21.6667 57.3636 24.5455 57.3636C27.2121 57.3636 29.5606 56.7955 31.5909 55.6591C33.6364 54.5076 35.2273 52.8864 36.3636 50.7955C37.5152 48.6894 38.0909 46.2121 38.0909 43.3636L39.8182 43.7273H25.8182V38.7273H43.5455V43.7273C43.5455 47.5606 42.7273 50.8939 41.0909 53.7273C39.4697 56.5606 37.2273 58.7576 34.3636 60.3182C31.5152 61.8636 28.2424 62.6364 24.5455 62.6364C20.4242 62.6364 16.803 61.6667 13.6818 59.7273C10.5758 57.7879 8.15152 55.0303 6.40909 51.4545C4.68182 47.8788 3.81818 43.6364 3.81818 38.7273C3.81818 35.0455 4.31061 31.7348 5.29545 28.7955C6.29545 25.8409 7.70455 23.3258 9.52273 21.25C11.3409 19.1742 13.4924 17.5833 15.9773 16.4773C18.4621 15.3712 21.197 14.8182 24.1818 14.8182C26.6364 14.8182 28.9242 15.1894 31.0455 15.9318C33.1818 16.6591 35.0833 17.697 36.75 19.0455C38.4318 20.3788 39.8333 21.9773 40.9545 23.8409C42.0758 25.6894 42.8485 27.7424 43.2727 30H37.4545ZM54.6591 62V27.0909H60.0227V62H54.6591ZM57.3864 21.2727C56.3409 21.2727 55.4394 20.9167 54.6818 20.2045C53.9394 19.4924 53.5682 18.6364 53.5682 17.6364C53.5682 16.6364 53.9394 15.7803 54.6818 15.0682C55.4394 14.3561 56.3409 14 57.3864 14C58.4318 14 59.3258 14.3561 60.0682 15.0682C60.8258 15.7803 61.2045 16.6364 61.2045 17.6364C61.2045 18.6364 60.8258 19.4924 60.0682 20.2045C59.3258 20.9167 58.4318 21.2727 57.3864 21.2727ZM75.2102 41V62H69.8466V27.0909H75.0284V32.5455H75.483C76.3011 30.7727 77.5436 29.3485 79.2102 28.2727C80.8769 27.1818 83.0284 26.6364 85.6648 26.6364C88.0284 26.6364 90.0966 27.1212 91.8693 28.0909C93.642 29.0455 95.0208 30.5 96.0057 32.4545C96.9905 34.3939 97.483 36.8485 97.483 39.8182V62H92.1193V40.1818C92.1193 37.4394 91.4072 35.303 89.983 33.7727C88.5587 32.2273 86.6042 31.4545 84.1193 31.4545C82.4072 31.4545 80.8769 31.8258 79.5284 32.5682C78.1951 33.3106 77.142 34.3939 76.3693 35.8182C75.5966 37.2424 75.2102 38.9697 75.2102 41ZM132.011 34.9091L127.193 36.2727C126.89 35.4697 126.443 34.6894 125.852 33.9318C125.277 33.1591 124.489 32.5227 123.489 32.0227C122.489 31.5227 121.208 31.2727 119.648 31.2727C117.511 31.2727 115.731 31.7652 114.307 32.75C112.898 33.7197 112.193 34.9545 112.193 36.4545C112.193 37.7879 112.678 38.8409 113.648 39.6136C114.617 40.3864 116.133 41.0303 118.193 41.5455L123.375 42.8182C126.496 43.5758 128.822 44.7348 130.352 46.2955C131.883 47.8409 132.648 49.8333 132.648 52.2727C132.648 54.2727 132.072 56.0606 130.92 57.6364C129.784 59.2121 128.193 60.4545 126.148 61.3636C124.102 62.2727 121.723 62.7273 119.011 62.7273C115.451 62.7273 112.504 61.9545 110.17 60.4091C107.837 58.8636 106.36 56.6061 105.739 53.6364L110.83 52.3636C111.314 54.2424 112.231 55.6515 113.58 56.5909C114.943 57.5303 116.723 58 118.92 58C121.42 58 123.405 57.4697 124.875 56.4091C126.36 55.3333 127.102 54.0455 127.102 52.5455C127.102 51.3333 126.678 50.3182 125.83 49.5C124.981 48.6667 123.678 48.0455 121.92 47.6364L116.102 46.2727C112.905 45.5152 110.557 44.3409 109.057 42.75C107.572 41.1439 106.83 39.1364 106.83 36.7273C106.83 34.7576 107.383 33.0152 108.489 31.5C109.61 29.9848 111.133 28.7955 113.057 27.9318C114.996 27.0682 117.193 26.6364 119.648 26.6364C123.102 26.6364 125.814 27.3939 127.784 28.9091C129.769 30.4242 131.178 32.4242 132.011 34.9091ZM155.358 62.7273C151.994 62.7273 149.093 61.9848 146.653 60.5C144.229 59 142.358 56.9091 141.04 54.2273C139.737 51.5303 139.085 48.3939 139.085 44.8182C139.085 41.2424 139.737 38.0909 141.04 35.3636C142.358 32.6212 144.191 30.4848 146.54 28.9545C148.903 27.4091 151.661 26.6364 154.812 26.6364C156.631 26.6364 158.426 26.9394 160.199 27.5455C161.972 28.1515 163.585 29.1364 165.04 30.5C166.494 31.8485 167.653 33.6364 168.517 35.8636C169.381 38.0909 169.812 40.8333 169.812 44.0909V46.3636H142.903V41.7273H164.358C164.358 39.7576 163.964 38 163.176 36.4545C162.403 34.9091 161.297 33.6894 159.858 32.7955C158.434 31.9015 156.752 31.4545 154.812 31.4545C152.676 31.4545 150.828 31.9848 149.267 33.0455C147.722 34.0909 146.532 35.4545 145.699 37.1364C144.866 38.8182 144.449 40.6212 144.449 42.5455V45.6364C144.449 48.2727 144.903 50.5076 145.812 52.3409C146.737 54.1591 148.017 55.5455 149.653 56.5C151.29 57.4394 153.191 57.9091 155.358 57.9091C156.767 57.9091 158.04 57.7121 159.176 57.3182C160.328 56.9091 161.32 56.303 162.153 55.5C162.987 54.6818 163.631 53.6667 164.085 52.4545L169.267 53.9091C168.722 55.6667 167.805 57.2121 166.517 58.5455C165.229 59.8636 163.638 60.8939 161.744 61.6364C159.85 62.3636 157.722 62.7273 155.358 62.7273ZM177.972 62V27.0909H183.335V62H177.972ZM180.699 21.2727C179.653 21.2727 178.752 20.9167 177.994 20.2045C177.252 19.4924 176.881 18.6364 176.881 17.6364C176.881 16.6364 177.252 15.7803 177.994 15.0682C178.752 14.3561 179.653 14 180.699 14C181.744 14 182.638 14.3561 183.381 15.0682C184.138 15.7803 184.517 16.6364 184.517 17.6364C184.517 18.6364 184.138 19.4924 183.381 20.2045C182.638 20.9167 181.744 21.2727 180.699 21.2727Z" fill="#F5F5F5"/>
</svg>
